<!-- Generated by IcoMoon.io -->
<svg version="1.1" xmlns="http://www.w3.org/2000/svg" width="1024" height="1024" viewBox="0 0 1024 1024">
<g id="icomoon-ignore">
</g>
<path d="M668.050 280.727c2.012-53.76-39.731-98.817-92.91-101.207-53.76-2.014-98.816 39.869-101.069 93.731-2.015 53.453 39.729 98.78 93.317 100.795 53.35 2.15 98.409-39.593 100.662-93.32z"></path>
<path d="M764.959 592.463c47.48-25.052 65.334-84.001 40.791-131.72-25.055-47.616-83.73-66.015-131.039-40.788-47.342 24.781-65.605 83.866-40.686 131.446 25.088 47.754 83.592 66.015 130.934 41.062z"></path>
<path d="M544.627 832.952c45.327 28.398 104.924 14.679 133.596-30.515 28.81-45.737 15.327-105.743-30.001-134.554-45.194-28.534-104.927-15.050-133.599 30.687-28.672 45.33-14.917 105.472 30.003 134.382z"></path>
<path d="M320.658 862.559c53.727 1.979 98.644-39.869 100.659-93.765 1.979-53.453-39.355-98.783-93.082-100.797-53.179-2.388-98.544 39.493-100.933 93.356-1.741 53.588 40.005 98.783 93.356 101.207z"></path>
<path d="M221.123 621.957c47.173-25.088 65.331-84.004 40.653-131.482-25.053-47.718-83.729-66.015-131.072-41.198-47.343 25.19-65.33 84.137-40.652 131.855 24.917 47.616 83.728 66.015 131.071 40.824z"></path>
<path d="M216.924 239.598c-28.262 45.704-14.917 105.71 30.413 134.518 44.954 28.536 104.927 14.815 133.599-30.684 28.808-45.33 15.086-105.438-30.003-134.246-45.33-28.536-105.336-15.087-134.008 30.413z"></path>
</svg>
