<!-- Generated by IcoMoon.io -->
<svg version="1.1" xmlns="http://www.w3.org/2000/svg" width="1103" height="1024" viewBox="0 0 1103 1024">
<g id="icomoon-ignore">
</g>
<path d="M1074.050 1010.802l-0.551 6.628 6.502 0.551 0.614-6.565-6.565-0.614z"></path>
<path d="M917.15 840.070l-1.189 13.088 13.005 1.209 1.252-13.107-13.068-1.189z"></path>
<path d="M841.716 967.897l-0.41 4.517 4.513 0.469 0.429-4.573-4.533-0.414z"></path>
<path d="M750.856 945.38c-8.491 7.144-9.641 19.862-2.56 28.412 7.077 8.531 19.712 9.704 28.203 2.588 8.511-7.14 9.661-19.818 2.584-28.373-7.073-8.57-19.712-9.677-28.227-2.627z"></path>
<path d="M754.235 796.089c-6.628-8.003-18.42-9.090-26.36-2.442-7.956 6.664-9.043 18.499-2.438 26.522 6.644 7.979 18.436 9.066 26.376 2.422 7.964-6.668 9.027-18.546 2.422-26.502z"></path>
<path d="M620.82 912.384c5.577 6.727 15.506 7.609 22.17 2.032 6.711-5.585 7.617-15.573 2.056-22.3-5.585-6.711-15.51-7.629-22.177-2.009-6.684 5.577-7.589 15.549-2.048 22.276z"></path>
<path d="M604.644 758.587c-7.633 6.424-8.661 17.829-2.3 25.517 6.357 7.692 17.743 8.739 25.372 2.343 7.652-6.38 8.68-17.829 2.324-25.521-6.361-7.672-17.723-8.72-25.395-2.339z"></path>
<path d="M572.707 754.326l0.41-4.576-4.573-0.41-0.41 4.553 4.573 0.433z"></path>
<path d="M489.326 766.314c7.385-6.195 8.389-17.211 2.233-24.639-6.132-7.404-17.105-8.385-24.47-2.213-7.385 6.152-8.373 17.172-2.253 24.615 6.148 7.385 17.101 8.393 24.489 2.237z"></path>
<path d="M412.144 715.713l1.276-13.828-13.729-1.248-1.248 13.804 13.702 1.272z"></path>
<path d="M381.782 620.229l0.819-9.169-9.127-0.859-0.84 9.208 9.147 0.819z"></path>
<path d="M354.036 548.943l0.861-9.496-9.457-0.882-0.882 9.515 9.478 0.863z"></path>
<path d="M240.056 465.924l0.367-4.269-4.243-0.37-0.373 4.246 4.248 0.394z"></path>
<path d="M176.619 403.003c-1.948-67.754-57.927-117.746-57.927-117.746 25.374 33.419 17.534 70.645 17.534 70.645-15.649 52.945 31.14 98.135 31.14 98.135 2.321-5.723 4.143-11.382 5.561-17.002 5.209 1.351 10.954 0.303 15.381-3.407 7.347-6.136 8.329-17.089 2.237-24.43-3.571-4.305-8.759-6.38-13.926-6.195z"></path>
<path d="M95.904 391.201l8.307 0.798 0.756-8.386-8.328-0.803-0.735 8.391z"></path>
<path d="M102.684 295.571l-1.376 15.035 14.976 1.376 1.35-15.034-14.95-1.376z"></path>
<path d="M6.488 295.482c5.787 6.953 16.001 7.893 22.937 2.132 6.89-5.808 7.835-16.106 2.090-23.059-5.766-6.91-16.022-7.877-22.911-2.069-6.916 5.761-7.856 16.059-2.116 22.995z"></path>
<path d="M49.723 221.761c8.633-7.221 9.825-20.139 2.605-28.84-7.2-8.717-20.044-9.867-28.677-2.647-8.675 7.242-9.846 20.165-2.647 28.882 7.2 8.701 20.060 9.846 28.719 2.605z"></path>
<path d="M44.384 8.693c-7.446 6.239-8.428 17.334-2.258 24.823 6.197 7.467 17.256 8.471 24.702 2.253 7.446-6.212 8.45-17.308 2.232-24.818-6.17-7.467-17.25-8.491-24.676-2.258z"></path>
</svg>
