<!-- Generated by IcoMoon.io -->
<svg version="1.1" xmlns="http://www.w3.org/2000/svg" width="819" height="1024" viewBox="0 0 819 1024">
<g id="icomoon-ignore">
</g>
<path d="M563.7 356.401c54.176 17.367 112.312-12.919 129.378-67.422 17.066-54.614-13.326-112.748-67.531-130.033-54.395-17.067-112.2 13.134-129.268 67.856-17.066 54.286 12.999 112.531 67.42 129.599z"></path>
<path d="M705.946 636.369c55.46-12.478 90.331-67.967 78.070-123.754-12.261-55.978-67.201-91.177-122.88-78.696-55.46 12.37-90.466 67.611-78.178 123.507 12.261 55.898 67.391 91.206 122.989 78.944z"></path>
<path d="M558.694 827.498c42.136-38.83 44.81-104.448 6.281-146.663-38.394-42.025-103.465-44.921-145.598-6.199-42.134 38.611-44.675 104.202-6.609 146.555 38.611 41.916 104.012 44.81 145.926 6.308z"></path>
<path d="M174.65 788.595c54.696 17.175 112.312-13.136 129.706-67.83 17.068-54.204-13.462-112.64-67.529-129.708-54.395-17.285-112.203 13.107-129.597 67.502-16.739 54.503 13.325 112.751 67.42 130.036z"></path>
<path d="M139.166 513.677c55.46-12.37 90.658-67.721 78.178-123.617-12.259-56.007-67.31-91.204-122.661-79.026-55.788 12.671-90.767 68.049-78.397 123.945 12.261 55.98 67.393 91.206 122.88 78.698z"></path>
<path d="M387.443 126.426c-38.42-42.025-103.682-44.811-145.816-6.308-41.917 38.83-44.812 104.339-6.418 146.581 38.42 42.025 103.684 44.784 145.598 6.062 42.136-38.502 44.81-104.201 6.636-146.335z"></path>
</svg>
