<!-- Generated by IcoMoon.io -->
<svg version="1.1" xmlns="http://www.w3.org/2000/svg" width="1024" height="1024" viewBox="0 0 1024 1024">
<g id="icomoon-ignore">
</g>
<path d="M749.837 252.179c-85.498 20.164-151.834 16.895-189.167 89.497-37.333 72.534-12.928 96.436-12.928 96.436s23.032-37.103 75.597-50.065c52.668-13.039 95.497-43.435 105.167-56.166l9.434-16.171c-8.038 20.104-31.603 69.598-77.702 94.003-58.462 31.096-100.899 32.734-100.899 32.734s83.164 55.697 181.231-3.302c98.202-59 91.77-179.098 93.83-215.672 2.099-36.625-2.496-70.23-2.496-70.23s3.437 78.703-82.067 98.936z"></path>
<path d="M676.998 484.304c-81.17 3.729-89.498 37-89.498 37s43.434 1.468 80.897 40.729c37.6 39.339 85.203 61.432 100.934 63.471l18.669 0.128c-21.331 3.072-75.731 7.304-119.834-20.6-56.005-35.396-78.67-71.5-78.67-71.5s-6.434 100.241 93.499 156.099c99.904 55.904 200.166-9.658 232.672-26.163 32.666-16.506 59.334-37.265 59.334-37.265s-66.17 42.301-126.234-21.939c-60.205-64.358-90.541-123.733-171.77-119.962z"></path>
<path d="M438.34 764.723c1.834 114.97 108.399 169.44 138.999 189.498 30.499 20.166 61.67 32.966 61.67 32.966s-69.504-36.397-44.271-120.864c25.438-84.531 61.44-140.634 17.501-209.434-43.836-68.764-76.569-59.428-76.569-59.428s20.437 38.494 5.333 90.827c-15.061 52.339-10.325 104.832-4.267 119.571l9.208 16.16c-13.372-17.062-44.1-62.259-42.103-114.496 2.5-66.47 22.229-104.168 22.229-104.168s-89.566 44.501-87.731 159.368z"></path>
<path d="M314.908 544.171c81.203-3.772 89.54-36.975 89.54-36.975s-43.435-1.425-80.939-40.798c-37.564-39.262-85.163-61.363-100.898-63.428l-18.5-0.137c21.504-3.063 75.631-7.167 119.637 20.634 56.030 35.396 78.592 71.501 78.592 71.501s6.4-100.198-93.432-156.1c-99.9-55.902-200.166 9.668-232.729 26.163-32.606 16.504-59.273 37.274-59.273 37.274s66.108-42.308 126.268 21.896c60.169 64.401 90.505 123.768 171.734 119.971z"></path>
<path d="M414.611 74.239c-30.499-20.13-61.705-32.93-61.705-32.93s69.539 36.395 44.169 120.866c-25.327 84.531-61.295 140.629-17.502 209.433 43.836 68.762 76.706 59.435 76.706 59.435s-20.437-38.536-5.333-90.837c15.061-52.369 10.334-104.867 4.13-119.569l-9.002-16.094c13.44 17.195 43.938 62.328 41.941 114.364-2.441 66.5-22.272 104.235-22.272 104.235s89.6-44.501 87.765-159.402c-1.766-114.936-108.433-169.396-138.897-189.5z"></path>
</svg>
