<!-- Generated by IcoMoon.io -->
<svg version="1.1" xmlns="http://www.w3.org/2000/svg" width="1024" height="1024" viewBox="0 0 1024 1024">
<g id="icomoon-ignore">
</g>
<path d="M287.070 721.227l0.311-3.45-3.443-0.311-0.311 3.45 3.443 0.311z"></path>
<path d="M241.299 716.025c3.677-3.063 4.17-8.542 1.115-12.225-3.053-3.686-8.495-4.191-12.169-1.119-3.666 3.066-4.161 8.535-1.104 12.228 3.042 3.686 8.494 4.182 12.158 1.115z"></path>
<path d="M195.517 684.931c-3.85 3.21-4.364 8.952-1.164 12.82 3.189 3.869 8.922 4.392 12.763 1.182 3.837-3.228 4.36-8.98 1.162-12.837-3.2-3.861-8.92-4.394-12.761-1.165z"></path>
<path d="M209.618 654.928l0.38-4.122-4.111-0.376-0.369 4.12 4.1 0.378z"></path>
<path d="M175.025 602.555l0.29-3.171-3.15-0.281-0.283 3.161 3.143 0.29z"></path>
<path d="M193.974 511.453c-3.007 2.502-3.424 7.002-0.912 10.037 2.5 3.016 6.961 3.422 9.987 0.901 3.007-2.51 3.403-7 0.901-10.035-2.491-3.016-6.971-3.422-9.976-0.903z"></path>
<path d="M177.765 496.089c11.134 50.172 37.16 102.741 83.374 144.088 80.457 74.482 186.552 92.838 254.693 76.761 69.431-14.237 104.271-43.762 104.145-42.978 0.166-0.747-36.006 27.006-104.843 39.022-67.716 13.807-170.133-6.207-248.592-78.74-43.269-38.692-68.908-87.312-81.174-134.429l5.692-2.115c3.908-3.286 4.461-9.132 1.182-13.079-2.713-3.269-7.174-4.15-10.868-2.493-6.516-33.822-6.276-66.095-0.834-92.46 0.484-2.599 0.998-5.131 1.532-7.615l0.844 1.504 6.796 0.631 0.631-6.857-6.817-0.629-0.32 0.359c2.88-12.208 6.43-23.079 10.241-32.671 25.764-25.345 54.836-69.109 54.263-85.644-0.59-17.078 16.116-25.866 16.116-25.866-76.625 24.297-74.346 97.751-73.192 111.715-5.362 12.511-10.327 27.201-14.021 44.295-6.673 27.881-7.497 62.866-0.417 99.542-0.613 2.588-0.107 5.392 1.569 7.66z"></path>
<path d="M214.548 465.019c3.336-2.793 3.791-7.768 1.018-11.111-2.774-3.366-7.719-3.813-11.055-1.020-3.336 2.785-3.783 7.758-1.017 11.104 2.772 3.357 7.738 3.8 11.054 1.028z"></path>
<path d="M160.367 414.66l-0.631 6.989 6.933 0.64 0.638-6.98-6.941-0.65z"></path>
<path d="M226.302 350.167l-0.184 2.083 2.067 0.186 0.192-2.076-2.074-0.194z"></path>
<path d="M177.76 296.137l0.66-7.127-7.087-0.652-0.66 7.118 7.087 0.661z"></path>
<path d="M195.673 271.939c3.5-2.931 3.986-8.145 1.067-11.666-2.91-3.51-8.118-3.995-11.618-1.067-3.49 2.929-3.957 8.145-1.057 11.664 2.91 3.511 8.117 3.997 11.608 1.069z"></path>
<path d="M215.329 242.087c3.007-2.482 3.403-6.974 0.91-10.028-2.51-3.005-6.969-3.402-9.976-0.894-3.007 2.506-3.403 7-0.901 10.028 2.499 3.005 6.959 3.426 9.966 0.894z"></path>
<path d="M239.353 210.063l0.601-6.678-6.654-0.62-0.611 6.678 6.663 0.62z"></path>
<path d="M270.895 201.445l0.194-2.109-2.111-0.223-0.205 2.136 2.122 0.197z"></path>
<path d="M292.009 181.363l-0.264 2.78 2.785 0.248 0.251-2.78-2.772-0.248z"></path>
<path d="M296.591 126.456l-6.256-0.571-0.562 6.281 6.235 0.571 0.583-6.28z"></path>
<path d="M349.528 164.954l0.223-2.507-2.491-0.223-0.225 2.507 2.493 0.223z"></path>
<path d="M387.547 152.666c3.966-3.327 4.509-9.259 1.21-13.231-3.314-4.022-9.22-4.543-13.197-1.216-3.973 3.327-4.507 9.235-1.201 13.256 3.316 3.972 9.212 4.518 13.187 1.192z"></path>
<path d="M401.492 111.286l-0.337 3.749 3.724 0.348 0.328-3.773-3.714-0.323z"></path>
<path d="M419.494 96.193c3.753-3.153 4.267-8.788 1.134-12.561-3.12-3.773-8.706-4.294-12.469-1.142-3.753 3.153-4.267 8.763-1.134 12.536 3.122 3.773 8.717 4.294 12.469 1.167z"></path>
<path d="M473.045 98.027l0.357-3.972-3.956-0.348-0.328 3.947 3.927 0.373z"></path>
<path d="M486.612 23.532c3.377-2.83 3.832-7.845 1.031-11.221-2.793-3.351-7.788-3.823-11.134-1.018-3.364 2.83-3.802 7.82-1.018 11.196 2.793 3.376 7.788 3.847 11.121 1.042z"></path>
<path d="M532.391 84.998c3.556-2.979 4.044-8.316 1.084-11.891-2.986-3.575-8.27-4.071-11.828-1.067-3.569 2.954-4.044 8.291-1.097 11.866 2.986 3.575 8.27 4.071 11.841 1.092z"></path>
<path d="M604.866 32l0.253-2.681-2.666-0.249-0.244 2.681 2.657 0.248z"></path>
<path d="M649.694 25.522c4.023-3.351 4.578-9.384 1.212-13.405-3.348-4.046-9.339-4.617-13.364-1.241-4.023 3.376-4.558 9.384-1.201 13.43 3.346 4.046 9.33 4.592 13.353 1.216z"></path>
<path d="M690.519 94.155l0.263-3.054-3.025-0.298-0.274 3.054 3.037 0.298z"></path>
<path d="M767.518 85.418l0.514-5.71-5.673-0.521-0.514 5.709 5.673 0.521z"></path>
<path d="M823.251 115.282l0.503-5.635-5.604-0.521-0.505 5.635 5.606 0.521z"></path>
<path d="M846.908 131.867c2.696-2.234 3.083-6.256 0.825-8.961-2.249-2.706-6.226-3.078-8.94-0.819-2.668 2.259-3.055 6.256-0.806 8.961 2.242 2.731 6.235 3.078 8.922 0.819z"></path>
<path d="M857.82 157.336l0.581-6.305-6.263-0.571-0.583 6.305 6.265 0.571z"></path>
<path d="M881.681 172.9l0.281-3.053-3.024-0.273-0.292 3.053 3.035 0.273z"></path>
<path d="M921.665 220.143c2.376-1.96 2.696-5.461 0.728-7.844-1.959-2.359-5.45-2.681-7.775-0.721-2.359 1.962-2.67 5.487-0.728 7.846 1.968 2.357 5.459 2.681 7.775 0.719z"></path>
<path d="M934.009 235.31l0.484-5.288-5.265-0.473-0.454 5.288 5.235 0.473z"></path>
<path d="M934.45 267.003c3.297 3.984 9.164 4.517 13.141 1.21 3.956-3.307 4.478-9.212 1.18-13.189-3.295-3.981-9.153-4.528-13.109-1.201-3.975 3.297-4.507 9.212-1.212 13.18z"></path>
<path d="M908.863 314.009l0.661-7.040-7.030-0.648-0.631 7.047 7 0.64z"></path>
<path d="M935.413 339.964l0.438-4.751-4.722-0.438-0.447 4.751 4.731 0.438z"></path>
<path d="M969.114 356.155l0.581-6.479-6.449-0.59-0.581 6.468 6.449 0.601z"></path>
<path d="M970.112 377.778c3.56 4.284 9.91 4.878 14.178 1.298 4.267-3.567 4.848-9.959 1.307-14.245-3.556-4.297-9.92-4.878-14.187-1.311-4.254 3.59-4.848 9.961-1.298 14.258z"></path>
<path d="M993.55 415.645l0.631-6.941-6.915-0.631-0.629 6.933 6.913 0.639z"></path>
<path d="M957.088 436.498l-0.27 2.687 2.675 0.244 0.231-2.687-2.636-0.244z"></path>
<path d="M1003.857 455.792c-2.355-2.839-6.555-3.227-9.389-0.86-2.809 2.346-3.199 6.563-0.842 9.406 2.346 2.83 6.535 3.228 9.346 0.86 2.843-2.355 3.23-6.572 0.884-9.406z"></path>
<path d="M943.387 482.954c-3.511 2.947-3.966 8.203-1.056 11.742 2.927 3.539 8.164 4.014 11.685 1.087 3.51-2.97 3.994-8.214 1.056-11.754-2.927-3.537-8.145-4.025-11.685-1.076z"></path>
<path d="M957.773 517.131l4.007 0.359 0.357-4.023-3.995-0.359-0.369 4.023z"></path>
<path d="M1018.295 567.238c4.15-3.463 4.714-9.659 1.27-13.837-3.472-4.17-9.627-4.733-13.768-1.262-4.182 3.47-4.733 9.659-1.272 13.828 3.452 4.17 9.6 4.742 13.77 1.272z"></path>
<path d="M1011.634 597.78l-0.534 5.913 5.896 0.544 0.534-5.915-5.896-0.542z"></path>
<path d="M990.595 635.992l0.29-3.238-3.247-0.311-0.294 3.258 3.251 0.29z"></path>
<path d="M989.523 662.779l-0.514 5.762 5.703 0.512 0.532-5.742-5.721-0.532z"></path>
<path d="M923.008 674.015c-3.519-4.247-9.763-4.82-13.98-1.29-4.23 3.53-4.781 9.832-1.29 14.060 3.51 4.237 9.775 4.811 13.993 1.29 4.208-3.53 4.789-9.823 1.277-14.060z"></path>
<path d="M919.978 704.631l-0.397 4.217 4.198 0.389 0.387-4.219-4.189-0.387z"></path>
<path d="M893.528 717.468c-2.908 2.443-3.297 6.797-0.871 9.724 2.422 2.938 6.758 3.325 9.667 0.894 2.908-2.446 3.325-6.797 0.903-9.726-2.456-2.949-6.77-3.336-9.698-0.892z"></path>
<path d="M917.478 767.723c-4.219 3.53-4.772 9.834-1.262 14.060 3.491 4.249 9.776 4.809 13.993 1.288 4.189-3.53 4.772-9.823 1.279-14.060-3.521-4.247-9.793-4.807-14.010-1.288z"></path>
<path d="M852.042 786.419c2.649-2.212 3.007-6.15 0.808-8.795-2.182-2.648-6.11-3.016-8.758-0.795-2.607 2.199-2.977 6.127-0.795 8.786 2.212 2.655 6.109 3.005 8.745 0.804z"></path>
<path d="M829.967 815.285c-3.8 3.199-4.314 8.901-1.134 12.742 3.169 3.83 8.842 4.36 12.655 1.162 3.83-3.191 4.334-8.903 1.152-12.74-3.171-3.841-8.844-4.364-12.673-1.164z"></path>
<path d="M790.74 872.549l-0.659 7.254 7.235 0.67 0.648-7.254-7.224-0.67z"></path>
<path d="M748.246 868.821c-2.957 2.456-3.357 6.857-0.901 9.804 2.452 2.938 6.816 3.355 9.743 0.894 2.929-2.463 3.346-6.848 0.903-9.804-2.454-2.949-6.816-3.346-9.745-0.894z"></path>
<path d="M736.12 922.496l-0.339 3.813 3.761 0.337 0.371-3.791-3.793-0.359z"></path>
<path d="M698.374 884.459c-3.364-4.062-9.376-4.614-13.431-1.221-4.053 3.374-4.588 9.417-1.231 13.487 3.364 4.064 9.376 4.617 13.42 1.225 4.053-3.387 4.617-9.417 1.242-13.491z"></path>
<path d="M686.998 943.372c-3.219 2.694-3.657 7.505-0.989 10.745 2.696 3.227 7.485 3.664 10.685 0.977 3.23-2.696 3.666-7.503 1-10.743-2.685-3.24-7.496-3.668-10.696-0.979z"></path>
<path d="M661.996 974.922c4.044-3.392 4.595-9.443 1.231-13.517-3.364-4.070-9.406-4.614-13.459-1.24-4.044 3.392-4.578 9.436-1.203 13.509 3.364 4.070 9.376 4.634 13.431 1.247z"></path>
<path d="M580.524 963.104c2.843-2.355 3.23-6.576 0.884-9.406-2.355-2.841-6.557-3.219-9.367-0.864-2.832 2.366-3.219 6.583-0.864 9.417 2.346 2.832 6.546 3.219 9.346 0.853z"></path>
<path d="M562.403 983.63c3.394-2.819 3.848-7.853 1.039-11.247-2.813-3.383-7.838-3.85-11.201-1.028-3.366 2.832-3.832 7.855-1.018 11.247 2.793 3.385 7.805 3.861 11.18 1.028z"></path>
<path d="M519.395 982.21l0.583-6.507-6.459-0.59-0.601 6.496 6.477 0.601z"></path>
<path d="M500.384 1021.775c2.338-1.949 2.648-5.45 0.707-7.805-1.966-2.346-5.429-2.666-7.758-0.698-2.355 1.949-2.666 5.438-0.724 7.805 1.966 2.338 5.429 2.666 7.775 0.698z"></path>
<path d="M460.85 981.917l0.648-7.090-7.051-0.637-0.648 7.067 7.051 0.659z"></path>
<path d="M390.312 1002.664l0.68-7.408-7.369-0.68-0.659 7.41 7.349 0.678z"></path>
<path d="M361.841 1019.159c2.357-1.968 2.677-5.489 0.719-7.853-1.97-2.376-5.47-2.687-7.827-0.728-2.346 1.979-2.677 5.498-0.707 7.874 1.959 2.357 5.461 2.687 7.816 0.707z"></path>
<path d="M336.905 979.745l0.367-4.159-4.131-0.367-0.378 4.139 4.143 0.387z"></path>
<path d="M289.535 993.563l0.251-2.772-2.763-0.251-0.251 2.774 2.763 0.249z"></path>
<path d="M267.288 969.763c4.074-3.403 4.625-9.473 1.233-13.565-3.394-4.102-9.447-4.655-13.507-1.249-4.074 3.403-4.627 9.493-1.242 13.584 3.394 4.083 9.443 4.645 13.517 1.231z"></path>
<path d="M184.225 972.5l-0.67 7.36 7.313 0.659 0.657-7.358-7.3-0.661z"></path>
<path d="M169.085 966.736c2.396-1.998 2.726-5.558 0.727-7.943-1.988-2.394-5.516-2.724-7.892-0.728-2.376 1.988-2.706 5.548-0.727 7.944 1.976 2.385 5.516 2.713 7.892 0.726z"></path>
<path d="M161.752 907.469c-2.646-3.2-7.388-3.638-10.58-0.981-3.19 2.666-3.624 7.438-0.968 10.637 2.666 3.2 7.388 3.647 10.58 0.972 3.19-2.666 3.624-7.429 0.968-10.627z"></path>
<path d="M134.164 892.518c-2.346 1.949-2.666 5.459-0.707 7.825 1.949 2.348 5.439 2.668 7.778 0.709 2.356-1.968 2.666-5.468 0.717-7.827-1.959-2.355-5.451-2.666-7.787-0.707z"></path>
<path d="M97.36 883.924c-2.338 1.949-2.659 5.451-0.717 7.818 1.969 2.355 5.439 2.666 7.795 0.707 2.338-1.949 2.659-5.459 0.707-7.827-1.959-2.346-5.429-2.666-7.785-0.698z"></path>
<path d="M68.034 847.708c-3.113 2.608-3.54 7.274-0.941 10.417 2.599 3.13 7.244 3.556 10.357 0.948 3.133-2.607 3.56-7.282 0.961-10.424-2.609-3.13-7.244-3.556-10.376-0.94z"></path>
<path d="M31.355 844.271c-3.073 2.56-3.49 7.138-0.941 10.221 2.549 3.072 7.107 3.489 10.173 0.931 3.053-2.56 3.48-7.138 0.931-10.221-2.562-3.076-7.1-3.502-10.163-0.931z"></path>
<path d="M8.349 826.832c-3.82 3.2-4.334 8.913-1.154 12.763 3.182 3.841 8.855 4.364 12.685 1.164 3.82-3.199 4.344-8.911 1.154-12.752-3.182-3.841-8.855-4.373-12.685-1.175z"></path>
</svg>
