<!-- Generated by IcoMoon.io -->
<svg version="1.1" xmlns="http://www.w3.org/2000/svg" width="926" height="1024" viewBox="0 0 926 1024">
<g id="icomoon-ignore">
</g>
<path d="M744.448 494.899c111.538-31.413 137.143-150.522 148.826-185.722 11.805-35.278 16.174-69.307 16.174-69.307s-17.52 77.837-106.408 74.768c-88.893-3.153-152.893-24.108-208.691 36.844-55.691 60.933-38.093 90.795-38.093 90.795s32.256-30.070 87.162-28.672c54.852 1.346 104.838-16.911 117.667-26.741l13.253-13.029c-13.332 17.678-49.396 59.327-100.649 70.835-65.395 14.726-107.301 4.947-107.301 4.947s66.56 76.752 178.059 45.281z"></path>
<path d="M806.405 685.334c-41.701-78.98-55.667-145.218-136.055-163.274-80.379-18.032-97.314 12.244-97.314 12.244s42.033 13.029 68.32 61.513c26.288 48.508 66.965 82.866 81.871 89.088 6.885 2.843 13.288 4.315 18.164 5.052-21.719-2.716-75.986-13.175-111.675-52.161-45.407-49.679-57.973-90.995-57.973-90.995s-32.812 96.246 50.054 177.571c82.846 81.471 198.193 44.139 234.462 36.771 36.24-7.412 67.813-20.573 67.813-20.573s-75.864 23.698-117.667-55.237z"></path>
<path d="M561.342 673.514c-24.635-79.014-59.202-78.629-59.202-78.629s9.777 43.149-18.844 90.185c-28.62 47.187-37.839 99.811-35.811 115.858 1.014 7.441 2.972 13.79 4.779 18.491-8.51-20.187-26.669-72.841-10.923-123.504 20.064-64.258 49.393-95.846 49.393-95.846s-99.377 19.554-127.997 132.291c-28.698 112.913 61.127 194.692 85.561 222.471 24.537 27.887 51.638 48.762 51.638 48.762s-58.289-54.223-11.176-130.028c47.187-75.864 97.217-121.066 72.582-200.051z"></path>
<path d="M376.385 654.36c55.745-60.977 38.093-90.819 38.093-90.819s-32.177 30.018-87.108 28.648c-54.984-1.346-104.89 16.916-117.718 26.741l-13.458 13.253c13.127-17.442 49.347-59.499 100.827-71.056 65.471-14.707 107.347-4.954 107.347-4.954s-66.511-76.75-178.027-45.28c-111.619 31.442-137.118 150.523-148.879 185.749s-16.176 69.286-16.176 69.286c0 0 17.496-77.79 106.411-74.742 88.942 3.096 152.937 24.079 208.688-36.825z"></path>
<path d="M114.47 244.684c-36.24 7.392-67.779 20.519-67.779 20.519s75.861-23.646 117.633 55.29c41.779 79.007 55.699 145.167 136.13 163.222 80.308 18.089 97.27-12.19 97.27-12.19s-42.032-13.023-68.24-61.512c-26.364-48.502-67.077-82.843-81.933-89.091-6.853-2.841-13.256-4.317-18.211-5.104 21.715 2.718 76.068 13.231 111.671 52.214 45.414 49.627 57.981 91.003 57.981 91.003s32.84-96.308-50.030-177.63c-82.843-81.419-198.221-44.139-234.493-36.721z"></path>
<path d="M409.476 332.298c24.563 79.014 59.1 78.631 59.1 78.631s-9.779-43.126 18.874-90.236c28.622-47.163 37.891-99.734 35.804-115.78-0.961-7.418-2.945-13.744-4.696-18.412 8.485 20.318 26.595 72.838 10.845 123.348-20.061 64.334-49.397 95.899-49.397 95.899s99.349-19.556 128.001-132.34c28.75-112.867-61.079-194.645-85.587-222.478s-51.634-48.736-51.634-48.736c0 0 58.364 54.197 11.255 130.032-47.163 75.86-97.27 121.040-72.565 200.073z"></path>
</svg>
