<!-- Generated by IcoMoon.io -->
<svg version="1.1" xmlns="http://www.w3.org/2000/svg" width="914" height="1024" viewBox="0 0 914 1024">
<g id="icomoon-ignore">
</g>
<path d="M407.79 535.749c1.909-13.275-7.256-25.618-20.454-27.505-13.239-1.96-25.508 7.281-27.429 20.612-1.887 13.297 7.315 25.677 20.495 27.619 13.221 1.869 25.501-7.391 27.388-20.725z"></path>
<path d="M418.209 598.51c10.514 8.283 25.75 6.477 34.015-3.979 8.232-10.573 6.422-25.925-4.114-34.213-10.492-8.265-25.732-6.473-33.957 4.001-8.272 10.628-6.462 25.867 4.056 34.191z"></path>
<path d="M507.421 582.663c12.398-5.047 18.454-19.178 13.52-31.678-5.007-12.42-19.105-18.512-31.506-13.502-12.398 4.988-18.454 19.178-13.52 31.598 4.97 12.5 19.065 18.534 31.506 13.583z"></path>
<path d="M490.416 490.156c-1.924 13.272 7.274 25.6 20.44 27.502 13.253 1.924 25.523-7.278 27.447-20.608 1.883-13.297-7.314-25.659-20.498-27.586-13.235-1.88-25.523 7.336-27.388 20.692z"></path>
<path d="M484.052 461.561c8.287-10.609 6.477-25.882-4.056-34.224-10.536-8.291-25.735-6.477-34.022 4.056-8.229 10.573-6.415 25.882 4.118 34.187 10.492 8.291 25.71 6.48 33.96-4.019z"></path>
<path d="M422.294 456.825c-4.955-12.5-19.054-18.534-31.488-13.586-12.398 5.051-18.439 19.182-13.524 31.682 5.007 12.412 19.105 18.476 31.484 13.462 12.438-4.948 18.476-19.145 13.528-31.557z"></path>
<path d="M317.164 656.282c-32.056 40.858-84.436 55.296-105.755 59.655 4.764-1.123 10.879-3.087 17.296-6.327 14.175-7.234 51.658-44.054 73.943-93.711 22.23-49.62 62.591-65.584 62.591-65.584s-18.876-28.471-96.568-4.699c-77.697 23.713-86.499 89.805-121.734 170.628-35.24 80.699-111.543 63.082-111.543 63.082s31.964 10.573 68.13 15.144c36.172 4.571 152.366 32.666 227.83-53.584 75.467-86.133 36.058-178.381 36.058-178.381s-9.278 41.626-50.248 93.776z"></path>
<path d="M450.973 608.856c0 0 31.221 28.899 55.676 90.609 19.24 48.574 5.274 101.68-1.602 122.214 1.43-4.784 2.86-11.143 3.277-18.534 0.878-15.945-12.112-66.992-43.732-111.236-31.638-44.134-25.22-87.3-25.22-87.3s-33.938 2.249-52.341 81.733c-18.381 79.521 34.172 120.229 86.133 191.276 51.906 71.051-1.43 128.666-1.43 128.666s25.128-22.532 47.144-51.749c22.038-29.199 104.324-116.308 67.752-225.104-36.517-108.763-135.658-120.576-135.658-120.576z"></path>
<path d="M704.388 501.493c-111.963-22.63-171.714 57.79-171.714 57.79s40.496-12.763 105.904-3.123c51.522 7.526 90.288 46.285 104.499 62.457-3.408-3.621-8.155-8.038-14.365-12.134-13.294-8.704-63.751-22.952-117.654-17.525-53.848 5.467-87.812-21.712-87.812-21.712s-15.067 30.665 44.208 86.44c59.315 55.749 120.667 30.358 207.887 20.703 87.164-9.713 110.153 65.521 110.153 65.521s-6.894-33.141-21.029-66.889c-14.153-33.774-48.055-148.955-160.077-171.527z"></path>
<path d="M530.794 463.342c0 0 9.282-41.582 50.249-93.714 32.077-40.915 84.495-55.334 105.79-59.679-4.758 1.166-10.913 3.106-17.349 6.344-14.149 7.241-51.621 44.042-73.904 93.718-22.25 49.62-62.629 65.558-62.629 65.558s18.915 28.478 96.585 4.725c77.7-23.771 86.521-89.867 121.735-170.608 35.28-80.725 111.561-63.108 111.561-63.108s-31.978-10.572-68.169-15.141c-36.169-4.574-152.327-32.666-227.811 53.56-75.447 86.152-36.059 178.345-36.059 178.345z"></path>
<path d="M379.315 71.385c-22.002 29.121-104.287 116.263-67.716 225.085 36.479 108.76 135.64 120.569 135.64 120.569s-31.221-28.859-55.654-90.629c-19.277-48.606-5.277-101.751 1.58-122.226-1.39 4.764-2.86 11.142-3.277 18.574-0.859 15.94 12.112 67.009 43.732 111.177 31.638 44.211 25.22 87.3 25.22 87.3s33.946-2.194 52.323-81.658c18.417-79.545-34.132-120.252-86.115-191.298-51.906-71.104 1.43-128.668 1.43-128.668s-25.121 22.538-47.163 51.775z"></path>
</svg>
