<!-- Generated by IcoMoon.io -->
<svg version="1.1" xmlns="http://www.w3.org/2000/svg" width="984" height="1024" viewBox="0 0 984 1024">
<g id="icomoon-ignore">
</g>
<path d="M58.349 158.608c3.895-3.592 3.924-9.725 0.219-13.507-3.728-3.798-9.586-3.994-13.249-0.618-3.643 3.41-3.875 9.318-0.379 13.347 3.473 3.986 9.529 4.409 13.409 0.779z"></path>
<path d="M28.45 186.376c5.228-3.917 6.049-11.321 2.007-16.372-4.042-5.054-11.129-6.070-15.951-2.47-4.807 3.614-5.776 10.596-2.26 16.013 3.523 5.445 10.991 6.752 16.204 2.828z"></path>
<path d="M83.191 130.248c2.777-3.32 2.309-8.203-1.040-10.933-3.347-2.709-8.167-2.393-10.772 0.71-2.652 3.059-2.273 7.872 0.898 10.799 3.18 2.905 8.077 2.68 10.914-0.575z"></path>
<path d="M104.207 98.846c1.76-2.837 0.862-6.485-2.021-8.183-2.828-1.649-6.471-0.871-8.12 1.775-1.606 2.661-0.828 6.259 1.91 8.099 2.758 1.867 6.498 1.157 8.232-1.69z"></path>
<path d="M108.554 65.639c-1.046 2.569 0.189 5.614 2.926 6.855 2.695 1.222 5.928 0 7.073-2.792 1.060-2.842-0.35-5.952-3.151-6.961-2.813-0.99-5.866 0.302-6.848 2.898z"></path>
<path d="M116.88 39.733c-0.338 2.289 1.27 4.554 3.656 5.073 2.456 0.526 4.827-1.053 5.192-3.564 0.415-2.492-1.256-4.757-3.719-5.066s-4.757 1.284-5.129 3.557z"></path>
<path d="M123.15 17.489c2.294-0.232 3.888-2.343 3.543-4.68-0.35-2.344-2.483-3.846-4.757-3.397s-3.866 2.521-3.537 4.639c0.323 2.134 2.456 3.678 4.752 3.438z"></path>
<path d="M796.958 262.691c0 0 28.408-9.039 33.074-42.976 4.667-33.951-24.294-54.862-32.364-62.176-8.077-7.319-16.702-12.533-16.702-12.533s18.835 13.902 7.557 37.635c-11.283 23.749-24.443 38.653-14.611 60.912 9.803 22.283 19.874 21.019 19.874 21.019s-4.294-12.28 2.541-26.997c6.827-14.723 7.788-30.449 6.653-35.046-0.563-2.21-1.347-4.042-2.036-5.375 3.1 5.523 10.282 20.394 7.312 35.839-3.755 19.48-11.299 29.699-11.299 29.699z"></path>
<path d="M883.032 251.418c-17.311 4.534-29.747-2.639-29.747-2.639s-3.39 10.779 18.772 25.987c22.133 15.208 40.905 3.804 68.892-3.774 27.986-7.58 39.241 15.845 39.241 15.845s-3.907-10.492-10.202-20.793c-6.316-10.303-23.144-46.204-60.849-47.902-37.678-1.713-53.173 27.551-53.173 27.551s12.582-6.198 34.42-6.401c17.299-0.155 31.943 10.667 37.314 15.193-1.292-1.017-3.103-2.26-5.384-3.292-4.751-2.189-21.965-4.274-39.284 0.225z"></path>
<path d="M203.513 761.17c-28.428-19.102-45.13-38.961-75.593-30.343-30.477 8.575-30.736 21.908-30.736 21.908s16.582-3.298 34.245 8.338c17.663 11.593 37.693 15.802 43.833 15.15 2.975-0.295 5.508-0.997 7.34-1.649-7.657 3.003-28.176 9.578-47.51 2.842-24.35-8.505-36.071-20.211-36.071-20.211s6.316 38.583 49.087 50.968c42.787 12.409 75.074-21.333 86-30.456 10.907-9.122 19.223-19.367 19.223-19.367s-21.391 21.908-49.819 2.82z"></path>
<path d="M119.158 854.178c0 0 9.291 14.513 12.604 41.207 2.639 21.193-8.463 40.736-13.165 47.894 1.058-1.731 2.323-4.174 3.27-7.136 1.459-4.512 1.881-17.249-1.13-31.846l4.583 0.268 0.428-4.774-4.744-0.442-1.031 1.531c-1.002-4.189-2.287-8.491-3.929-12.773-7.93-20.539-1.011-36.77-1.011-36.77s-13.529-2.633-28.807 26.631c-15.299 29.242 1.171 50.596 14.302 83.775 13.123 33.159-13.643 50.245-13.643 50.245s12.162-6.267 23.741-15.437c11.586-9.181 52.667-34.851 49.411-81.201-3.25-46.366-40.877-61.172-40.877-61.172z"></path>
</svg>
