<!-- Generated by IcoMoon.io -->
<svg version="1.1" xmlns="http://www.w3.org/2000/svg" width="275" height="1024" viewBox="0 0 275 1024">
<g id="icomoon-ignore">
</g>
<path d="M233.243 261.689l-0.414 4.553 4.544 0.429 0.416-4.568-4.545-0.414z"></path>
<path d="M266.157 979.756c1.863-1.553 2.112-4.313 0.575-6.184-1.553-1.895-4.33-2.134-6.187-0.573-1.868 1.542-2.117 4.339-0.564 6.21 1.553 1.868 4.305 2.123 6.176 0.547z"></path>
<path d="M216.526 1005.492c-3.479 2.907-3.949 8.105-1.052 11.597 2.905 3.527 8.080 3.98 11.559 1.085 3.486-2.931 3.957-8.129 1.059-11.625-2.898-3.5-8.071-3.987-11.567-1.058z"></path>
<path d="M200.771 975.8c-2.531 2.134-2.882 5.93-0.77 8.453 2.117 2.571 5.881 2.913 8.412 0.779 2.54-2.134 2.889-5.907 0.779-8.455-2.117-2.546-5.881-2.889-8.421-0.778z"></path>
<path d="M207.802 946.575c2.244-1.895 2.555-5.253 0.676-7.524-1.871-2.276-5.222-2.569-7.483-0.698-2.262 1.888-2.571 5.277-0.685 7.521 1.88 2.268 5.23 2.589 7.492 0.702z"></path>
<path d="M137.655 881.569c2.309-1.926 2.61-5.363 0.693-7.697-1.92-2.325-5.349-2.626-7.658-0.7-2.317 1.935-2.627 5.374-0.709 7.706 1.92 2.323 5.358 2.627 7.674 0.691z"></path>
<path d="M89.383 867.559c-1.966 1.632-2.227 4.562-0.597 6.535 1.632 1.982 4.546 2.245 6.505 0.613 1.972-1.646 2.227-4.576 0.597-6.551-1.632-1.965-4.546-2.244-6.505-0.598z"></path>
<path d="M100.728 847.51l-0.183 1.964 1.967 0.176 0.167-1.964-1.95-0.176z"></path>
<path d="M93.771 820.597l-0.487 5.349 5.31 0.48 0.501-5.334-5.325-0.495z"></path>
<path d="M77.975 805.569c-2.293 1.912-2.604 5.335-0.693 7.642 1.91 2.309 5.309 2.629 7.601 0.694 2.293-1.901 2.604-5.334 0.693-7.642-1.909-2.308-5.308-2.627-7.601-0.694z"></path>
<path d="M65.689 777.312l-0.518 5.588 5.582 0.518 0.501-5.588-5.565-0.518z"></path>
<path d="M39.015 774.784l5.133 0.477 0.471-5.173-5.135-0.452-0.469 5.149z"></path>
<path d="M36.023 674.75c-2.268 1.904-2.58 5.311-0.685 7.587 1.887 2.285 5.27 2.595 7.538 0.694 2.276-1.904 2.588-5.303 0.693-7.596-1.895-2.276-5.27-2.58-7.546-0.685z"></path>
<path d="M29.838 663.045l0.405-4.464-4.451-0.422-0.397 4.481 4.442 0.405z"></path>
<path d="M5.168 627.486l-0.198 2.283 2.276 0.208 0.198-2.286-2.276-0.205z"></path>
<path d="M63.055 574.695l-0.436 4.807 4.775 0.439 0.438-4.801-4.777-0.445z"></path>
<path d="M70.17 551.95l-5.327-0.501-0.485 5.365 5.325 0.486 0.487-5.349z"></path>
<path d="M10.505 520.993c-3.246 2.714-3.676 7.538-0.986 10.81 2.698 3.246 7.513 3.693 10.745 0.978 3.248-2.705 3.695-7.553 0.996-10.802-2.708-3.254-7.524-3.7-10.756-0.986z"></path>
<path d="M52.269 495.394c-1.918 1.591-2.164 4.44-0.573 6.369 1.592 1.917 4.426 2.189 6.338 0.588 1.909-1.608 2.164-4.467 0.581-6.384-1.594-1.92-4.434-2.189-6.346-0.573z"></path>
<path d="M29.189 479.538l0.239-2.578-2.57-0.24-0.238 2.58 2.57 0.238z"></path>
<path d="M44.868 395.366c-1.928 1.608-2.191 4.481-0.583 6.422 1.602 1.926 4.451 2.198 6.384 0.573 1.936-1.6 2.191-4.481 0.589-6.415-1.608-1.935-4.457-2.198-6.391-0.581z"></path>
<path d="M27.348 356.699c-2.857 2.387-3.24 6.654-0.868 9.537 2.38 2.857 6.631 3.254 9.488 0.868 2.859-2.396 3.24-6.656 0.86-9.529-2.372-2.873-6.623-3.265-9.48-0.876z"></path>
<path d="M40.677 322.308c-2.731-3.304-7.603-3.751-10.874-1.019-3.271 2.756-3.725 7.642-0.995 10.945 2.737 3.287 7.601 3.734 10.874 0.995 3.271-2.737 3.725-7.642 0.995-10.92z"></path>
<path d="M53.42 308.777c3.566-2.983 4.051-8.31 1.082-11.898-2.961-3.575-8.263-4.062-11.829-1.076-3.558 2.977-4.035 8.302-1.074 11.875 2.969 3.582 8.263 4.076 11.821 1.099z"></path>
<path d="M81.044 227.362c-3.265 2.73-3.703 7.594-0.988 10.865 2.706 3.289 7.554 3.725 10.819 1.004 3.254-2.73 3.701-7.594 0.986-10.867-2.714-3.287-7.554-3.726-10.817-1.003z"></path>
<path d="M97.106 209.388l-0.524 5.812 5.777 0.523 0.526-5.809-5.779-0.526z"></path>
<path d="M114.33 198.891c2.772-2.317 3.138-6.45 0.846-9.228-2.309-2.769-6.425-3.151-9.178-0.844-2.763 2.309-3.144 6.448-0.844 9.227 2.307 2.779 6.415 3.151 9.176 0.845z"></path>
<path d="M158.732 117.141c-2.23 1.863-2.525 5.182-0.677 7.428 1.855 2.238 5.158 2.531 7.388 0.676 2.21-1.863 2.522-5.19 0.676-7.42-1.855-2.235-5.167-2.547-7.387-0.685z"></path>
<path d="M192.844 4.556c-2.372-2.873-6.624-3.271-9.488-0.866-2.867 2.394-3.249 6.662-0.868 9.535 2.387 2.873 6.639 3.281 9.496 0.876 2.857-2.388 3.248-6.664 0.86-9.545z"></path>
</svg>
